#define logo_width 16
#define logo_height 16
static unsigned char logo_bits[] = {
   0x00, 0x00, 0x00, 0x00, 0x80, 0x03, 0xc0, 0x03, 0xf0, 0x03, 0xb0, 0x03,
   0xb0, 0x0f, 0xd0, 0x17, 0xc0, 0x17, 0xc8, 0x17, 0xb0, 0x17, 0x80, 0x03,
   0xf0, 0x0f, 0xf0, 0x0f, 0x00, 0x00, 0x00, 0x00 };
